<svg width="161" height="69" viewBox="0 0 161 69" fill="none" xmlns="http://www.w3.org/2000/svg">
<mask id="mask0_703_2252" style="mask-type:luminance" maskUnits="userSpaceOnUse" x="0" y="0" width="161" height="69">
<path d="M0.189453 0H160.189V68.0758H0.189453V0Z" fill="white"/>
</mask>
<g mask="url(#mask0_703_2252)">
<mask id="mask1_703_2252" style="mask-type:luminance" maskUnits="userSpaceOnUse" x="0" y="0" width="160" height="68">
<path d="M76.4703 27.7735C77.9816 25.3773 79.7207 24.1989 81.7139 24.1989C82.647 24.1989 83.3523 24.5012 83.878 25.1057C84.4037 25.7146 84.6621 26.4856 84.6621 27.4625C84.6709 31.7731 80.426 35.4397 71.8223 38.3835C73.4344 33.6699 74.994 30.1391 76.4703 27.7735ZM127.409 25.903C127.418 24.8034 127.058 23.9185 126.366 23.2921C125.67 22.6656 124.728 22.3634 123.584 22.3634C122.612 22.3634 121.727 22.6087 120.921 23.1125L118.871 25.1626C118.297 25.9906 117.728 27.0113 117.145 28.1765L115.419 31.8651L109.448 44.591L109.422 44.5252L108.37 33.7006C108.235 32.3995 108.147 31.5716 108.112 31.2124C108.055 30.8444 107.945 30.0602 107.744 28.838C107.551 27.6509 107.319 26.7791 107.061 26.2709L106.456 25.1626C105.571 23.6863 105.01 23.1475 104.336 22.8321L102.018 22.3853C98.7329 22.3853 95.9993 25.1407 93.7608 30.4282L93.717 30.4633C91.0711 36.4473 89.1436 39.9518 87.0145 43.6272C83.3392 50.0843 79.3965 53.2647 75.2042 53.2647C71.8004 53.2516 70.1314 51.3372 70.1183 47.3727C70.1183 45.3532 70.4424 43.1147 71.082 40.6133C72.2604 40.2672 73.1672 39.9518 73.7017 39.7854C74.2405 39.6189 75.3181 39.2246 76.8952 38.6201C78.4897 38.0243 79.7426 37.5118 80.6494 37.0737L84.0006 35.3039C85.3324 34.5417 86.3662 33.8145 87.1022 33.1092L89.0866 30.6867C89.6692 29.7667 89.9496 28.8512 89.9496 27.9312C89.9496 26.0957 89.2443 24.6808 87.8425 23.7608C86.467 22.8453 84.8067 22.394 82.8792 22.394C79.6419 22.394 76.5141 23.5286 73.5133 25.8022C70.4994 28.0758 68.1119 30.9889 66.3202 34.5636C64.5285 38.1382 63.6436 41.7567 63.6436 45.432C63.6524 52.3141 66.767 55.8099 72.9307 55.8186C76.5491 55.8186 79.6988 54.6972 82.3316 52.4587C84.4168 50.6976 86.1647 48.5905 87.6103 46.1811C90.1949 41.6559 92.4159 37.8359 95.1495 31.484L95.2721 31.1685C95.7102 30.1829 96.1001 29.3637 96.617 28.5708C97.5019 27.1558 98.3298 26.4856 99.0833 26.4856L100.415 26.8799C101.19 28.5577 101.515 29.9682 101.76 31.9439L103.652 44.9414C104.034 47.2588 104.235 49.3878 104.235 51.3153C104.235 53.1201 103.99 54.6534 103.495 55.9194C103.004 57.2073 102.185 58.6661 101.063 60.2913C98.6102 63.8528 96.4243 65.6007 94.6019 65.6007L93.5593 65.4342C92.8628 64.7377 92.7051 64.3347 92.7051 63.8397L92.7971 63.1694C93.1869 61.9166 93.2789 61.3865 93.2789 60.9265L93.0205 59.3933C91.991 58.3069 91.3076 58.0484 90.5103 58.0484C89.1436 58.0484 88.0922 58.4427 87.4088 59.2487C86.7254 60.0548 86.3662 61.0755 86.3662 62.2933C86.3662 63.9098 86.9007 65.2546 87.9652 66.2841C89.0297 67.3136 90.4665 67.8305 92.2714 67.8305C97.7604 67.8173 102.601 63.3271 106.811 54.3949L116.238 34.4409C116.628 33.7006 116.987 32.9822 117.311 32.2462L118.713 30.3844C119.318 29.8587 120.036 29.6003 120.873 29.6003L121.534 29.6222C122.621 29.7142 123.024 29.7361 123.282 29.7361C126.007 29.7229 127.431 28.435 127.431 25.938M147.967 36.5042L144.94 44.1091C143.687 46.6324 142.106 48.792 140.2 50.61C138.286 52.4017 136.35 53.2998 134.387 53.2998C133.108 53.2998 132.144 52.8967 131.417 52.0644C130.703 51.2496 130.344 50.1938 130.331 48.884C130.331 47.2237 130.712 45.0422 131.461 42.3612L134.422 34.2044C135.631 31.4489 137.186 29.1096 139.07 27.169C140.954 25.2327 142.868 24.2558 144.787 24.2558C147.652 24.269 149.076 26.2052 149.089 30.2837C149.089 31.8957 148.716 33.9722 147.954 36.513M158.512 44.0083L158.398 43.9295L158.341 44.0565C157.57 45.5898 156.483 47.2018 155.073 48.8709C153.671 50.5399 152.563 51.3591 151.822 51.3503L150.845 50.9999C150.824 49.1644 151.362 46.72 152.436 42.9L158.074 23.1782H152.203L150.399 28.8731L150.385 28.7942C150.499 26.9894 150.018 25.4342 149.01 24.212C148.002 22.9898 146.566 22.394 144.73 22.4072C141.624 22.4072 138.422 23.6163 135.136 26.0388C131.855 28.47 129.144 31.5146 127.05 35.1813C124.929 38.8654 123.878 42.4313 123.878 45.9052C123.878 49.309 124.697 51.841 126.353 53.4312C127.991 55.0345 129.941 55.8318 132.179 55.8318C137.222 55.8318 141.423 53.0282 144.761 47.4953L144.796 47.5173C144.248 48.9629 143.977 50.4173 143.977 51.7753C143.977 54.43 145.269 55.8099 147.788 55.8186C150.131 55.8186 152.361 54.6972 154.499 52.4893C156.641 50.2858 158.433 47.8195 159.909 45.0947L159.966 45.0071L158.512 44.0083ZM39.3615 24.7596H39.3396L39.3965 24.5712L39.3615 24.7596ZM50.0942 22.9767H50.1161L49.6035 24.9524L50.0942 22.9767ZM65.7157 27.1909C65.7157 25.7891 65.1769 24.6019 64.1124 23.7082C63.0478 22.8102 61.7249 22.3634 60.1347 22.3634L56.4812 23.0468C55.3159 23.4936 54.1857 24.2558 53.0993 25.2984C52.0129 26.341 51.1806 27.169 50.6242 27.8305C50.0723 28.4569 49.3013 29.4119 48.2937 30.6998L48.2455 30.6648L50.23 22.8891C50.1862 22.8891 50.1511 22.8891 50.1073 22.8891L50.1161 22.854L49.5247 22.9022C47.0803 23.0336 44.9732 23.1344 42.8222 23.1344H39.5981L39.2169 24.8516H39.3396L39.3265 24.8604H39.7996L43.1376 24.9611L35.0027 54.9995H41.2014L43.0719 47.675C44.8417 40.4468 47.2949 34.787 50.4315 30.6998C53.5681 26.5864 56.2578 24.5712 58.4306 24.5712L59.5959 24.9042C59.6178 26.0256 59.3856 26.6083 58.8906 27.3836L58.1283 29.5652C58.1415 31.3613 59.3637 32.255 61.6942 32.255C62.8814 32.255 63.8758 31.7862 64.6074 30.8663C65.3346 29.9463 65.7025 28.7022 65.7025 27.1821M58.0057 13.7028C60.8181 13.7028 63.2932 12.7259 64.9622 9.94853L64.7957 9.81273C63.8232 10.7108 62.3294 11.0568 60.5158 11.0568C55.3598 11.0568 47.676 8.27949 42.2528 8.27949C40.5706 8.27949 39.103 8.53795 37.9947 9.252L38.0736 9.45351L38.8446 9.3659C44.246 9.35275 51.9209 13.6896 57.9706 13.7028H58.0057ZM40.0011 10.6538L39.7996 10.667L39.5543 10.7327L39.655 10.8685C42.4543 14.3073 47.6629 16.9401 51.7895 16.9401C53.3665 16.9401 54.8034 16.5458 55.8548 15.6522L55.754 15.4594L54.8341 15.6828C49.8708 15.696 42.4192 10.6757 40.0011 10.667M36.5842 23.2921L36.4834 23.257V23.1475H30.7666C30.8017 22.9548 30.8367 22.7883 30.8674 22.6087L32.2122 16.7605C32.5145 15.236 32.8387 13.7247 33.7805 11.933C34.3982 10.7546 34.937 9.56741 36.3476 8.4591L36.571 8.28825L36.8645 8.08674C37.9947 7.31574 38.8139 7.12299 40.7195 6.84262L40.7064 6.85577L43.6064 6.6893C48.0002 6.6893 53.2351 7.61801 58.0407 7.61801C63.8977 7.61801 69.1764 6.22933 71.5639 0.109517L71.3711 0C68.5149 4.05213 62.0403 4.82751 55.1276 4.81437C51.0141 4.81437 46.7473 4.54715 43.0019 4.54715C39.8434 4.54715 37.0529 4.7399 35.0159 5.46709L33.7148 6.01468C31.7085 7.17118 30.0526 8.69127 29.0187 10.3384C27.8447 12.2352 27.0036 14.1715 26.0267 17.4439C25.6938 18.596 24.6818 21.9253 24.3007 23.2264L18.2641 23.1475L17.6815 24.8516L17.6465 24.9962H23.7663L20.6166 37.7001C18.0057 48.3802 15.9117 55.5164 14.3215 59.1042C12.727 62.6656 10.4884 64.4223 7.59718 64.4223L5.84929 63.9755C5.82739 62.7752 5.96319 62.2276 6.25232 61.4653L6.67724 60.1205C6.67724 58.9903 6.38812 58.3288 5.82739 57.79C5.26666 57.2511 4.54823 56.9839 3.69838 56.997C1.37662 56.997 0.189453 58.4208 0.189453 61.1193C0.189453 62.6437 0.741419 63.9536 1.77964 65.04C2.85729 66.1176 4.31606 66.6521 6.15156 66.6521C8.78435 66.6521 11.3295 65.5788 13.7696 63.4586C16.214 61.3427 18.3299 58.7099 20.0996 55.5733C21.8694 52.4368 23.5166 48.9191 25.0192 44.9721C26.5217 41.0295 27.7089 37.3979 28.5719 34.0729C29.4349 30.7436 30.1051 27.6947 30.587 24.8954L36.0891 24.983L36.5842 23.2921Z" fill="white"/>
</mask>
<g mask="url(#mask1_703_2252)">
<path d="M0.189453 0H159.922V67.813H0.189453V0Z" fill="#85754E"/>
</g>
</g>
</svg>
