<svg width="160" height="85" viewBox="0 0 160 85" fill="none" xmlns="http://www.w3.org/2000/svg">
<mask id="mask0_703_2263" style="mask-type:luminance" maskUnits="userSpaceOnUse" x="10" y="4" width="140" height="76">
<path d="M10.8744 4.49683H149.206V79.4719H10.8744V4.49683Z" fill="white"/>
</mask>
<g mask="url(#mask0_703_2263)">
<mask id="mask1_703_2263" style="mask-type:luminance" maskUnits="userSpaceOnUse" x="10" y="4" width="139" height="76">
<path d="M79.9488 6.2528C42.6997 6.2528 12.3896 22.337 12.3896 42.1025C12.3896 61.868 42.6863 77.9433 79.9488 77.9433C117.216 77.9433 147.512 61.8591 147.512 42.0936C147.512 22.3281 117.202 6.24388 79.9488 6.24388M79.9488 79.3204C41.9376 79.3204 10.9991 62.6211 10.9991 42.0802C10.9991 21.5393 41.9242 4.8623 79.9488 4.8623C117.978 4.8623 148.903 21.5616 148.903 42.1025C148.903 62.6434 117.964 79.3427 79.9488 79.3427" fill="white"/>
</mask>
<g mask="url(#mask1_703_2263)">
<path d="M-5.61987 -5.62427H165.7V90.3463H-5.61987V-5.62427Z" fill="#85754E"/>
</g>
</g>
<mask id="mask2_703_2263" style="mask-type:luminance" maskUnits="userSpaceOnUse" x="0" y="0" width="160" height="85">
<path d="M0 0H160V84.7219H0V0Z" fill="white"/>
</mask>
<g mask="url(#mask2_703_2263)">
<mask id="mask3_703_2263" style="mask-type:luminance" maskUnits="userSpaceOnUse" x="0" y="0" width="160" height="85">
<path d="M79.9487 80.733C40.5916 80.733 8.695 63.5569 8.695 42.3653C8.695 21.1737 40.5916 3.98421 79.9487 3.98421C119.31 3.98421 151.207 21.1648 151.207 42.3519C151.207 63.5436 119.301 80.7241 79.9487 80.7241M79.9487 0.0756836C35.8363 0.0756836 0.0802002 19.0077 0.0802002 42.3653C0.0802002 65.7229 35.8363 84.6549 79.9487 84.6549C124.066 84.6549 159.822 65.7229 159.822 42.3653C159.822 19.0077 124.066 0.0756836 79.9487 0.0756836Z" fill="white"/>
</mask>
<g mask="url(#mask3_703_2263)">
<path d="M-5.61987 -5.62451H165.7V90.3461H-5.61987V-5.62451Z" fill="#85754E"/>
</g>
</g>
<mask id="mask4_703_2263" style="mask-type:luminance" maskUnits="userSpaceOnUse" x="103" y="11" width="39" height="62">
<path d="M103.467 11.6182H141.331V72.6972H103.467V11.6182Z" fill="white"/>
</mask>
<g mask="url(#mask4_703_2263)">
<mask id="mask5_703_2263" style="mask-type:luminance" maskUnits="userSpaceOnUse" x="103" y="11" width="39" height="62">
<path d="M104.505 11.6539C122.814 16.8772 135.555 28.4602 135.555 41.9328C135.555 55.6237 122.399 67.3761 103.605 72.4567C125.456 68.1159 141.162 56.114 141.162 41.964C141.162 28.0145 125.88 16.1463 104.492 11.645" fill="white"/>
</mask>
<g mask="url(#mask5_703_2263)">
<path d="M-5.61963 -5.62476H165.7V90.3458H-5.61963V-5.62476Z" fill="#85754E"/>
</g>
</g>
<mask id="mask6_703_2263" style="mask-type:luminance" maskUnits="userSpaceOnUse" x="25" y="26" width="32" height="32">
<path d="M25.1182 26.6155H56.9836V57.3533H25.1182V26.6155Z" fill="white"/>
</mask>
<g mask="url(#mask6_703_2263)">
<mask id="mask7_703_2263" style="mask-type:luminance" maskUnits="userSpaceOnUse" x="25" y="26" width="32" height="32">
<path d="M53.6633 57.1841L48.4802 57.3223L32.3826 57.046L25.8401 57.1173C25.4078 57.1173 25.1895 56.9925 25.1895 56.7518L25.2697 56.4532L26.0897 56.2036C27.7209 55.9541 28.5097 55.6109 29.2718 55.0315L30.9475 53.1151C31.2996 52.4199 32.0305 50.1871 33.1358 46.4123C34.241 42.6374 35.061 39.6069 35.5958 37.3028C36.1351 35.0031 36.3936 33.2561 36.3936 32.0483C36.3936 30.6578 35.9301 29.6462 34.9808 28.9955C34.036 28.3448 33.0422 27.9794 31.9948 27.8768L30.5152 27.605L30.7514 26.8518L31.6428 26.8607C32.3157 26.9187 34.1964 26.9409 37.637 26.9409L42.37 26.9677L46.0958 26.8964C46.7911 26.8964 47.1432 27.0345 47.1432 27.3064L46.7822 27.7164C44.7053 27.9794 43.7382 28.278 43.1232 28.7192L42.0492 29.6774C41.4564 30.9074 40.8057 33.0511 39.803 36.7323C38.8002 40.418 37.9579 43.7204 37.2849 46.6618C36.612 49.6033 36.2688 51.5642 36.2688 52.5581C36.2688 55.0538 38.1852 56.3061 42.0046 56.3061C44.5672 56.3061 46.5638 56.0788 47.9988 55.6109C49.4339 55.1429 50.6328 54.4833 51.5776 53.6054C52.5269 52.7274 53.9976 51.1408 55.9541 48.8278L56.3908 48.4178L56.9122 48.5782C56.9122 49.1487 56.5156 50.2985 55.7268 52.3397C54.9424 54.3808 54.2471 55.9986 53.6633 57.1841Z" fill="white"/>
</mask>
<g mask="url(#mask7_703_2263)">
<path d="M-5.61975 -5.62427H165.7V90.3463H-5.61975V-5.62427Z" fill="#85754E"/>
</g>
</g>
<mask id="mask8_703_2263" style="mask-type:luminance" maskUnits="userSpaceOnUse" x="61" y="26" width="34" height="32">
<path d="M61.4805 26.6155H94.0991V57.7322H61.4805V26.6155Z" fill="white"/>
</mask>
<g mask="url(#mask8_703_2263)">
<mask id="mask9_703_2263" style="mask-type:luminance" maskUnits="userSpaceOnUse" x="61" y="26" width="34" height="32">
<path d="M65.5761 30.5775L65.4424 29.4634C64.872 28.6166 64.5645 28.3314 64.2213 28.1977L63.1829 27.9213C61.7701 27.7386 61.5874 27.5916 61.5874 27.342L61.779 26.874C62.6124 26.874 63.2275 26.9097 64.0252 26.9899L69.5916 27.284C70.786 27.284 71.9849 27.2172 73.2016 27.079L74.4361 26.9899C75.4477 26.9899 75.7553 27.1815 75.7553 27.5693L75.6973 27.8545L75.1046 28.0239C73.5002 28.2066 72.7693 28.4027 72.2924 28.6879C71.8111 28.9731 71.2986 29.5971 70.7504 30.5463C70.2067 31.4912 69.6139 33.314 68.9722 36.0058L67.2296 44.0279C66.7037 46.6974 66.4452 48.6584 66.4452 49.9241C66.4452 51.5864 67.1048 53.0571 68.4284 54.3095C69.7476 55.5663 71.6283 56.2036 74.0573 56.2036C76.7357 56.2036 78.9151 55.4058 80.5997 53.8192C82.2888 52.2371 83.8397 48.9525 85.2614 43.9744C86.6875 38.9918 87.3828 35.3908 87.3828 33.1535C87.3828 31.5714 86.9505 30.328 86.0948 29.4411C85.2391 28.5497 84.0893 28.0461 82.6542 27.957L82.0615 27.7743L82.4136 27.0567C83.9511 27.0567 84.9762 27.0924 86.175 27.1593C87.9532 27.2395 89.1387 27.284 89.7315 27.284L92.9804 27.1236C93.1498 27.1147 93.3102 27.1013 93.435 27.1013L94.0277 27.2484L93.6756 27.9704C91.9108 28.1843 91.0863 28.5275 90.5069 29.0756L89.2769 31.0811C89.0362 31.8655 88.7287 33.4744 88.3633 35.9122C87.9176 38.9561 86.9594 42.7532 85.4798 47.3258C83.9957 51.8939 82.1283 54.7685 79.8019 55.9317C77.4755 57.0949 75.0021 57.6743 72.337 57.6743C69.1237 57.6743 66.57 57.0236 64.6759 55.749C62.7863 54.4699 61.8503 52.7273 61.8503 50.5614C61.8503 49.2066 62.4208 45.9353 63.5706 40.7344C64.9032 34.6019 65.5761 31.2193 65.5761 30.5909" fill="white"/>
</mask>
<g mask="url(#mask9_703_2263)">
<path d="M-5.61963 -5.62427H165.7V90.3463H-5.61963V-5.62427Z" fill="#85754E"/>
</g>
</g>
<mask id="mask10_703_2263" style="mask-type:luminance" maskUnits="userSpaceOnUse" x="95" y="26" width="33" height="32">
<path d="M95.2223 26.6155H127.462V57.8659H95.2223V26.6155Z" fill="white"/>
</mask>
<g mask="url(#mask10_703_2263)">
<mask id="mask11_703_2263" style="mask-type:luminance" maskUnits="userSpaceOnUse" x="95" y="26" width="33" height="32">
<path d="M101.609 50.2628C102.041 49.9464 103.534 48.4311 106.11 45.7304L113.223 37.7618C115.402 35.1502 116.712 33.4388 117.167 32.6098L117.853 30.2834C117.853 28.835 116.931 28.0595 115.081 27.9704L114.15 27.7966L114.422 27.0211C115.184 27.0211 115.892 27.0345 117.091 27.0702L120.795 26.9766C123.964 26.9766 125.831 26.9988 126.379 27.0434L127.212 27.2395L126.802 27.8902C124.351 28.3448 123.005 28.9152 121.958 29.7353C120.906 30.5553 117.421 34.397 111.494 41.2603C109.328 43.7783 106.065 47.2545 101.725 51.7023C99.5676 53.8772 98.0969 55.4504 97.3125 56.4086L95.9443 57.857C95.3649 57.857 95.249 57.7545 95.249 57.5362L95.307 57.0014C99.3626 41.6926 101.337 33.2249 101.337 31.2416C101.337 30.4082 101.016 29.6996 100.365 29.1291C99.7191 28.5631 98.7832 28.2779 97.5621 28.2779L97.0139 28.1398L97.3704 27.3777L103.423 27.4891C104.96 27.4891 106.68 27.4089 108.552 27.2395L110.843 27.1014C111.173 27.1014 111.342 27.2395 111.342 27.4891L111.137 27.9214C109.305 28.0818 108.347 28.3225 107.835 28.6746C107.322 29.0266 106.832 29.8021 106.373 30.9787C105.918 32.1508 105.223 34.5931 104.323 38.2743C103.423 41.9555 102.509 45.9576 101.6 50.2762" fill="white"/>
</mask>
<g mask="url(#mask11_703_2263)">
<path d="M-5.61951 -5.62427H165.701V90.3463H-5.61951V-5.62427Z" fill="#85754E"/>
</g>
</g>
</svg>
