<svg width="160" height="98" viewBox="0 0 160 98" fill="none" xmlns="http://www.w3.org/2000/svg">
<mask id="mask0_703_2685" style="mask-type:luminance" maskUnits="userSpaceOnUse" x="5" y="5" width="54" height="23">
<path d="M5.77698 5.33643H58.0621V27.9324H5.77698V5.33643Z" fill="white"/>
</mask>
<g mask="url(#mask0_703_2685)">
<mask id="mask1_703_2685" style="mask-type:luminance" maskUnits="userSpaceOnUse" x="5" y="5" width="53" height="23">
<path d="M17.9341 27.5757H5.88074C7.7351 24.5543 8.03335 20.9363 9.04482 17.5713L11.0029 10.29C11.353 8.98027 11.5022 7.67055 11.3336 6.31544L11.3725 5.84861L22.2134 5.5309V6.92491L22.5959 7.02865L24.0872 5.68003C29.3131 5.66706 33.3784 5.51793 37.4243 5.46606L39.5121 5.75135C40.1929 7.0092 40.4263 7.12591 40.6078 7.27504L41.0358 7.09349C41.7814 5.78377 42.8642 5.48551 44.0896 5.46606H52.0322C53.0437 5.49848 54.0876 5.81619 55.0342 6.2117C56.8432 6.97678 57.7185 8.43563 57.8352 10.3937L57.2063 15.3149C56.4931 18.2391 55.715 21.1373 55.0537 24.0745L54.6711 27.5044H43.4088C43.2402 27.3747 42.9939 27.0246 43.2402 26.4476L44.4722 23.1927C45.4512 19.6461 46.3589 16.08 47.2926 12.5139L47.5066 11.8007L47.0073 9.61568C44.738 9.39523 43.4737 9.36281 42.2677 9.51194C40.5884 9.71294 39.2981 10.906 39.2657 12.6955C39.2138 14.9 38.2866 16.8451 37.8846 18.9523L36.724 23.5947C36.4777 24.7877 36.3804 26.0131 36.1924 27.3877L35.3819 27.5239C32.6976 27.5368 30.4737 27.5368 28.2498 27.5368H24.3076C24.3854 27.3229 24.4892 26.9922 24.6513 26.7134C26.0647 24.3403 26.3306 21.5847 27.1216 19.0172L28.6842 13.5254C28.7296 13.3439 28.8333 13.1753 28.8657 12.9937C29.3974 10.491 29.0797 9.33039 26.162 9.41468H24.9365C22.4662 9.53139 21.6687 10.1409 21.2019 11.9693L19.2957 19.6461C18.9002 21.3059 18.4657 22.9787 18.1351 24.6516L18.0054 26.4281" fill="white"/>
</mask>
<g mask="url(#mask1_703_2685)">
<path d="M-8.00098 -8.00073H168.001V105.777H-8.00098V-8.00073Z" fill="#85754E"/>
</g>
</g>
<mask id="mask2_703_2685" style="mask-type:luminance" maskUnits="userSpaceOnUse" x="57" y="5" width="32" height="23">
<path d="M57.3357 5.33643H88.8857V27.9324H57.3357V5.33643Z" fill="white"/>
</mask>
<g mask="url(#mask2_703_2685)">
<mask id="mask3_703_2685" style="mask-type:luminance" maskUnits="userSpaceOnUse" x="57" y="5" width="32" height="23">
<path d="M76.6768 16.8581L70.2579 16.9424C69.3631 17.0591 68.7342 17.6751 68.5332 18.6347L68.0858 20.5409C67.6514 22.9464 68.0015 23.3938 69.5252 23.491L73.3895 23.5429C74.6863 23.5105 75.2828 23.0307 75.581 21.7663L76.6768 16.8581ZM77.7726 9.95938C74.7835 9.09704 71.8853 9.512 69.013 9.42771C66.212 9.34991 63.3721 9.18133 60.4414 10.2576C60.7851 8.43569 61.4853 7.09355 62.4125 5.9135L63.5277 5.49854C68.598 5.46612 73.0913 5.45316 77.5845 5.48558L84.2045 5.78383C87.0249 6.06263 88.8987 8.29953 88.7301 11.0876L88.4513 13.1624C87.5047 16.8451 86.7072 19.497 86.0783 22.1813L85.2808 27.4072C85.0992 27.4396 84.7491 27.5369 84.4184 27.5563L76.6573 27.5758C75.6459 27.5888 74.7381 27.5563 74.8484 25.7344C72.8254 27.7703 70.6728 27.5888 68.5137 27.5758L62.795 27.5239C60.7397 27.4267 58.9502 26.694 57.9387 24.7229L57.5691 23.9254C57.2903 20.8262 57.6404 18.2392 58.9502 15.8337C59.5272 14.7703 60.3377 13.908 61.5177 13.6097L65.4793 12.8965C68.4359 12.8641 71.386 13.0457 74.3362 13.0975L75.9312 12.9808C77.7726 12.6501 78.0838 12.1509 77.9346 11.0033L77.8179 10.4068" fill="white"/>
</mask>
<g mask="url(#mask3_703_2685)">
<path d="M-8.00134 -8.00073H168.001V105.777H-8.00134V-8.00073Z" fill="#85754E"/>
</g>
</g>
<mask id="mask4_703_2685" style="mask-type:luminance" maskUnits="userSpaceOnUse" x="106" y="34" width="29" height="25">
<path d="M106.223 34.2214H134.414V58.2244H106.223V34.2214Z" fill="white"/>
</mask>
<g mask="url(#mask4_703_2685)">
<mask id="mask5_703_2685" style="mask-type:luminance" maskUnits="userSpaceOnUse" x="106" y="34" width="29" height="25">
<path d="M114.483 57.7381C111.863 58.3865 109.341 58.0169 106.573 58.1531L112.661 34.2733C114.93 34.2733 117.141 34.2085 119.326 34.3252L120.539 34.9023C122.049 36.6918 123.041 38.1182 124.072 39.4798L124.384 39.8299C125.661 38.2868 125.628 36.2638 126.491 34.3706H134.388C132.462 42.2808 130.569 50.0743 128.663 57.9715L120.701 58.0882C120.817 57.3231 120.85 56.7785 120.986 56.2793L122.529 50.2104C122.827 49.1147 122.711 48.1875 121.933 47.3252L118.38 43.208C117.037 48.2005 115.78 52.9142 114.483 57.7381Z" fill="white"/>
</mask>
<g mask="url(#mask5_703_2685)">
<path d="M-8.00208 -8.00098H168V105.776H-8.00208V-8.00098Z" fill="#85754E"/>
</g>
</g>
<mask id="mask6_703_2685" style="mask-type:luminance" maskUnits="userSpaceOnUse" x="0" y="34" width="30" height="25">
<path d="M0 34.2214H29.78V58.2244H0V34.2214Z" fill="white"/>
</mask>
<g mask="url(#mask6_703_2685)">
<mask id="mask7_703_2685" style="mask-type:luminance" maskUnits="userSpaceOnUse" x="0" y="34" width="30" height="25">
<path d="M24.6383 43.5776L24.8004 43.9407L22.7321 52.2464C22.2977 53.9257 21.2862 55.1511 19.8922 56.2144C18.0184 57.6214 15.9306 58.0883 13.6937 58.1207H3.52715C2.49623 58.1012 1.48476 57.9845 0.291748 57.9067L1.68576 52.1297C2.2304 52.0843 2.7102 52.0194 3.17703 52.0194H11.5022C12.8443 52.0194 14.0373 51.6499 15.0812 50.7875L15.8463 49.8474C13.4408 48.7322 11.3012 48.9332 9.16155 48.9008L2.56107 48.8813C2.66481 48.0708 2.67778 47.4095 2.8269 46.7741L4.62291 39.2659C5.21941 36.8604 7.43687 34.3058 10.7566 34.2734L29.3455 34.2539C27.7376 36.1796 26.2917 37.8848 24.8653 39.629L23.6722 40.394C20.4239 40.3616 17.9665 40.3746 15.4962 40.394H14.5042C12.4294 40.7701 11.8653 41.4379 11.6513 43.4284L24.6189 43.5581" fill="white"/>
</mask>
<g mask="url(#mask7_703_2685)">
<path d="M-8.00098 -8.00073H168.001V105.777H-8.00098V-8.00073Z" fill="#85754E"/>
</g>
</g>
<mask id="mask8_703_2685" style="mask-type:luminance" maskUnits="userSpaceOnUse" x="87" y="0" width="45" height="28">
<path d="M87.1094 0H131.095V27.9321H87.1094V0Z" fill="white"/>
</mask>
<g mask="url(#mask8_703_2685)">
<mask id="mask9_703_2685" style="mask-type:luminance" maskUnits="userSpaceOnUse" x="87" y="0" width="44" height="28">
<path d="M104.771 5.53077L107.955 11.8524C109.446 10.841 110.769 9.97864 112.046 9.06443L121.039 2.63252C121.914 1.98415 122.692 1.21906 123.704 0.34375H130.771C123.808 5.46593 116.922 10.2574 110.205 15.5482L117.687 27.7053C116.241 28.0035 114.834 27.3876 113.408 27.4913L109.161 27.5043C107.689 27.5043 106.23 27.5043 104.7 27.5043C103.74 25.4489 103.124 23.3093 101.549 21.5003L99.7462 22.6479C97.5223 24.4569 96.1801 25.7148 94.7667 26.9078L94.0535 27.4589C91.5702 27.608 89.463 27.6534 87.2909 27.5756L99.6101 18.239C97.0879 13.8884 94.7018 9.76467 92.2315 5.49835L104.771 5.53077Z" fill="white"/>
</mask>
<g mask="url(#mask9_703_2685)">
<path d="M-8.0011 -8.00098H168.001V105.776H-8.0011V-8.00098Z" fill="#85754E"/>
</g>
</g>
<mask id="mask10_703_2685" style="mask-type:luminance" maskUnits="userSpaceOnUse" x="107" y="65" width="28" height="25">
<path d="M108 65.3372H134.22V89.3336H108V65.3372Z" fill="white"/>
</mask>
<g mask="url(#mask10_703_2685)">
<mask id="mask11_703_2685" style="mask-type:luminance" maskUnits="userSpaceOnUse" x="108" y="65" width="26" height="25">
<path d="M133.941 65.616L132.249 71.205C131.088 71.205 130.038 71.205 129.014 71.205H121.616C120.254 71.218 120.209 71.2569 119.839 72.5666L119.625 73.7078C123.574 74.5701 127.419 74.5182 131.367 74.5701L130.057 79.5626C129.545 79.6145 129.014 79.6923 128.482 79.7117L120.176 79.7312C118.4 79.7312 118.38 79.7442 117.985 81.4364L117.803 82.2469L118.815 83.0639C121.979 83.0768 124.618 83.0639 127.269 83.0768L128.462 83.1287C129.228 84.5551 128.696 85.6833 128.365 86.8439C127.749 88.9835 127.717 88.9641 125.564 88.9641L111.332 88.9835C110.308 88.9835 109.264 89.0808 108.052 89.1456L108.22 88.0369C109.595 82.798 110.84 78.1038 112.065 73.429L112.266 72.2295L111.138 71.2375C111.799 69.3442 113.044 67.6714 114.367 66.0634L115.281 65.3502C121.713 65.3307 127.704 65.3696 133.675 65.4021L133.773 65.4669" fill="white"/>
</mask>
<g mask="url(#mask11_703_2685)">
<path d="M-8.00159 -8.00073H168V105.777H-8.00159V-8.00073Z" fill="#85754E"/>
</g>
</g>
<mask id="mask12_703_2685" style="mask-type:luminance" maskUnits="userSpaceOnUse" x="27" y="33" width="48" height="26">
<path d="M27.1079 33.7808H74.6599V58.2246H27.1079V33.7808Z" fill="white"/>
</mask>
<g mask="url(#mask12_703_2685)">
<mask id="mask13_703_2685" style="mask-type:luminance" maskUnits="userSpaceOnUse" x="27" y="34" width="48" height="25">
<path d="M61.6339 40.3424L65.5112 35.4472C66.179 34.5071 66.9052 34.2218 67.988 34.2542L72.974 34.2866C73.3242 34.2866 73.6548 34.3709 74.2513 34.4357L70.0888 39.8302C67.5731 43.0786 65.0314 46.314 62.5092 49.5624L56.3107 57.5698C55.8958 58.1015 55.416 58.1534 54.8519 58.1339L48.0828 58.0367C51.1886 54.088 54.1387 50.3275 57.0888 46.5604L53.5551 40.8741C52.3945 39.0133 51.221 37.1589 49.8075 34.9544L48.0504 40.0247C47.5512 40.0572 47.0714 40.1285 46.5916 40.1285L31.0694 40.1414C30.2071 40.1414 29.3642 40.31 28.5018 40.31L27.2051 40.1609C27.7367 38.2676 28.9946 36.6921 30.2071 35.0711L31.2056 34.2218C33.1766 34.2866 34.4021 34.2542 35.647 34.2542L55.416 34.2088C56.9721 34.1893 57.9511 34.6886 58.6644 36.0113L60.8883 39.6098C61.018 39.8108 61.219 39.9469 61.6015 40.31" fill="white"/>
</mask>
<g mask="url(#mask13_703_2685)">
<path d="M-8.00183 -8.00073H168V105.777H-8.00183V-8.00073Z" fill="#85754E"/>
</g>
</g>
<mask id="mask14_703_2685" style="mask-type:luminance" maskUnits="userSpaceOnUse" x="133" y="33" width="27" height="26">
<path d="M133.78 33.7808H160V58.2246H133.78V33.7808Z" fill="white"/>
</mask>
<g mask="url(#mask14_703_2685)">
<mask id="mask15_703_2685" style="mask-type:luminance" maskUnits="userSpaceOnUse" x="133" y="34" width="27" height="24">
<path d="M154.489 57.8031L153.439 57.8874C148.517 57.8874 144.089 57.868 139.661 57.8874C136.49 57.9069 134.804 56.4934 134.007 53.8545L133.858 49.4974C134.435 46.5602 135.252 43.6426 136.775 41.0037C139.31 36.6466 143.026 34.254 148.115 34.1892H159.663C159.293 34.8181 159.131 35.1877 158.898 35.486L155.351 39.7458C154.917 40.2775 154.405 40.3618 153.724 40.3423L145.827 40.2904C145.133 40.2904 144.685 40.6211 144.4 41.2371L141.813 49.2964C141.567 50.5413 142.215 51.3842 143.538 51.637L147.188 52.0001C147.999 52.065 148.368 51.637 148.55 50.8395L150.022 44.7707C150.21 44.0251 150.553 43.5258 151.37 43.5064H158.016C157.835 46.061 156.791 48.3044 156.363 50.671L154.502 57.8031" fill="white"/>
</mask>
<g mask="url(#mask15_703_2685)">
<path d="M-8.00098 -8.00073H168.001V105.777H-8.00098V-8.00073Z" fill="#85754E"/>
</g>
</g>
<mask id="mask16_703_2685" style="mask-type:luminance" maskUnits="userSpaceOnUse" x="82" y="64" width="28" height="26">
<path d="M82.9598 64.8899H109.336V89.3337H82.9598V64.8899Z" fill="white"/>
</mask>
<g mask="url(#mask16_703_2685)">
<mask id="mask17_703_2685" style="mask-type:luminance" maskUnits="userSpaceOnUse" x="82" y="65" width="28" height="24">
<path d="M109.115 65.3308L105.134 70.278C104.583 70.9912 103.941 71.2181 103.059 71.2051L96.044 71.1727C94.637 71.1014 93.9238 71.6849 93.3727 72.8974L91.1228 79.8934C90.7533 81.4365 91.4016 82.3961 92.9772 82.6944L96.446 83.0251C97.2565 83.0964 97.6844 82.6944 97.853 81.9034L98.9488 77.2415C99.1627 76.3597 99.4415 75.4974 99.6749 74.6351H107.319C106.126 79.3812 104.966 84.0041 103.773 88.7178L102.962 88.9123C98.0021 88.9318 93.444 88.8475 88.8795 88.9512C85.5144 89.0161 82.9468 86.3772 82.9598 83.0251C82.9792 80.7039 83.472 78.5188 84.1722 76.3597C84.9827 73.844 86.1109 71.471 87.855 69.4156C89.8585 67.0426 92.4326 65.5513 95.4475 65.3827L109.096 65.3179" fill="white"/>
</mask>
<g mask="url(#mask17_703_2685)">
<path d="M-8.0011 -8.00073H168.001V105.777H-8.0011V-8.00073Z" fill="#85754E"/>
</g>
</g>
<mask id="mask18_703_2685" style="mask-type:luminance" maskUnits="userSpaceOnUse" x="12" y="0" width="108" height="4">
<path d="M12.4414 0H119.553V3.55311H12.4414V0Z" fill="white"/>
</mask>
<g mask="url(#mask18_703_2685)">
<mask id="mask19_703_2685" style="mask-type:luminance" maskUnits="userSpaceOnUse" x="12" y="0" width="108" height="4">
<path d="M119.495 0.525106C118.879 2.21737 117.141 3.49467 115.397 3.49467H96.5425C69.3106 3.49467 42.0788 3.49467 14.8534 3.47522H13.1417C12.448 2.39892 12.6943 1.47174 12.9472 0.576976C14.3542 0.226853 117.816 0.174983 119.495 0.505655" fill="white"/>
</mask>
<g mask="url(#mask19_703_2685)">
<path d="M-8.00183 -8.00098H168V105.776H-8.00183V-8.00098Z" fill="#85754E"/>
</g>
</g>
<mask id="mask20_703_2685" style="mask-type:luminance" maskUnits="userSpaceOnUse" x="71" y="34" width="22" height="25">
<path d="M71.1136 34.2214H92.4453V58.2244H71.1136V34.2214Z" fill="white"/>
</mask>
<g mask="url(#mask20_703_2685)">
<mask id="mask21_703_2685" style="mask-type:luminance" maskUnits="userSpaceOnUse" x="71" y="34" width="22" height="25">
<path d="M88.5486 58.0882H71.3212C72.9097 52.2463 74.5047 46.4952 76.1127 40.6079L74.5825 40.3615L74.4723 39.1167C75.7496 37.4374 76.6573 36.2768 77.6039 35.1486L78.3496 34.3576C80.9366 34.2538 83.1411 34.3057 85.5141 34.3057L81.0209 51.6692C82.3306 52.3306 83.5755 51.9351 84.7491 51.9999L88.2698 52.0194C89.4952 52.0194 90.7206 52.0194 92.2638 52.0194L88.568 58.0882" fill="white"/>
</mask>
<g mask="url(#mask21_703_2685)">
<path d="M-8.00134 -8.00098H168.001V105.776H-8.00134V-8.00098Z" fill="#85754E"/>
</g>
</g>
<mask id="mask22_703_2685" style="mask-type:luminance" maskUnits="userSpaceOnUse" x="132" y="64" width="21" height="26">
<path d="M132.002 64.8899H152.446V89.3337H132.002V64.8899Z" fill="white"/>
</mask>
<g mask="url(#mask22_703_2685)">
<mask id="mask23_703_2685" style="mask-type:luminance" maskUnits="userSpaceOnUse" x="132" y="65" width="21" height="24">
<path d="M134.453 71.2376L138.681 65.8625C138.914 65.5837 139.394 65.3503 139.757 65.3308L146.26 65.3179C146.092 66.1283 146.014 66.7573 145.845 67.3732L142.111 81.6051C142.033 81.9487 142.013 82.3183 141.961 82.6166L143.012 83.0445C146.111 83.064 148.698 83.064 151.285 83.064L152.245 83.1093C151.83 85.0869 150.786 86.857 149.625 88.5687L148.75 88.9123C144.847 88.9512 141.397 88.9512 137.948 88.9512H132.314C133.74 83.2779 135.251 77.5074 136.956 71.8341L135.329 71.3672" fill="white"/>
</mask>
<g mask="url(#mask23_703_2685)">
<path d="M-8.00171 -8.00073H168V105.777H-8.00171V-8.00073Z" fill="#85754E"/>
</g>
</g>
<mask id="mask24_703_2685" style="mask-type:luminance" maskUnits="userSpaceOnUse" x="82" y="94" width="66" height="4">
<path d="M82.2197 94.2224H147.557V97.6458H82.2197V94.2224Z" fill="white"/>
</mask>
<g mask="url(#mask24_703_2685)">
<mask id="mask25_703_2685" style="mask-type:luminance" maskUnits="userSpaceOnUse" x="82" y="94" width="66" height="4">
<path d="M82.3494 97.4579C82.9459 93.84 82.9913 94.2549 85.682 94.2549H146.876C147.057 94.2549 147.239 94.2744 147.537 94.2873L147.207 94.9357C146.046 96.6734 144.814 97.4903 142.908 97.4903L109.445 97.4579C101.12 97.4579 92.8077 97.4579 84.4825 97.4579H83.1598" fill="white"/>
</mask>
<g mask="url(#mask25_703_2685)">
<path d="M-8.00195 -8.00073H168V105.777H-8.00195V-8.00073Z" fill="#85754E"/>
</g>
</g>
<mask id="mask26_703_2685" style="mask-type:luminance" maskUnits="userSpaceOnUse" x="93" y="34" width="15" height="25">
<path d="M93.3331 34.2214H107.857V58.2244H93.3331V34.2214Z" fill="white"/>
</mask>
<g mask="url(#mask26_703_2685)">
<mask id="mask27_703_2685" style="mask-type:luminance" maskUnits="userSpaceOnUse" x="93" y="34" width="15" height="25">
<path d="M99.8429 34.3901H107.805C105.73 42.2161 103.688 49.9123 101.632 57.7382L93.7222 58.1013C94.5521 54.023 95.7646 50.1781 96.7566 46.2814L99.8558 34.3901" fill="white"/>
</mask>
<g mask="url(#mask27_703_2685)">
<path d="M-8.00171 -8.00073H168V105.777H-8.00171V-8.00073Z" fill="#85754E"/>
</g>
</g>
<mask id="mask28_703_2685" style="mask-type:luminance" maskUnits="userSpaceOnUse" x="29" y="43" width="13" height="16">
<path d="M29.3318 43.5583H41.3333V58.2246H29.3318V43.5583Z" fill="white"/>
</mask>
<g mask="url(#mask28_703_2685)">
<mask id="mask29_703_2685" style="mask-type:luminance" maskUnits="userSpaceOnUse" x="29" y="43" width="13" height="16">
<path d="M37.2225 58.0365H29.4095C30.6415 53.1801 31.9836 48.434 33.3063 43.623H40.9701C41.022 43.8565 41.1192 44.0575 41.0868 44.2066L37.2419 58.0365" fill="white"/>
</mask>
<g mask="url(#mask29_703_2685)">
<path d="M-8.00183 -8.00073H168V105.777H-8.00183V-8.00073Z" fill="#85754E"/>
</g>
</g>
</svg>
