<svg width="160" height="105" viewBox="0 0 160 105" fill="none" xmlns="http://www.w3.org/2000/svg">
<mask id="mask0_699_1757" style="mask-type:luminance" maskUnits="userSpaceOnUse" x="0" y="6" width="160" height="93">
<path d="M0 6.23999H160V98.0153H0V6.23999Z" fill="white"/>
</mask>
<g mask="url(#mask0_699_1757)">
<mask id="mask1_699_1757" style="mask-type:luminance" maskUnits="userSpaceOnUse" x="0" y="6" width="160" height="93">
<path d="M87.0032 6.41357C52.0473 6.41357 20.8421 21.1891 0.388733 44.3345V73.1123C19.9323 88.628 45.4018 98.0111 73.2532 98.0111C108.209 98.0111 139.41 83.2232 159.868 60.0943V31.3041C140.32 15.7966 114.85 6.41357 87.0032 6.41357Z" fill="white"/>
</mask>
<g mask="url(#mask1_699_1757)">
<path d="M-4.90033 -4.90063H165.347V109.193H-4.90033V-4.90063Z" fill="white"/>
</g>
</g>
<mask id="mask2_699_1757" style="mask-type:luminance" maskUnits="userSpaceOnUse" x="0" y="1" width="160" height="47">
<path d="M0 1.78223H160V47.6885H0V1.78223Z" fill="white"/>
</mask>
<g mask="url(#mask2_699_1757)">
<mask id="mask3_699_1757" style="mask-type:luminance" maskUnits="userSpaceOnUse" x="0" y="2" width="160" height="46">
<path d="M0.388733 47.6225C20.3872 24.1421 51.2822 8.72968 86.2506 7.94811C114.176 7.32367 139.919 16.1361 159.855 31.2093V31.1763C140.035 12.7823 111.149 1.51767 79.2288 2.22481C47.5522 2.92368 19.374 15.2883 0.388733 34.3067V47.6225Z" fill="white"/>
</mask>
<g mask="url(#mask3_699_1757)">
<path d="M-4.90033 -4.90039H165.347V109.193H-4.90033V-4.90039Z" fill="#919496"/>
</g>
</g>
<mask id="mask4_699_1757" style="mask-type:luminance" maskUnits="userSpaceOnUse" x="0" y="0" width="160" height="45">
<path d="M0 0H160V44.5664H0V0Z" fill="white"/>
</mask>
<g mask="url(#mask4_699_1757)">
<mask id="mask5_699_1757" style="mask-type:luminance" maskUnits="userSpaceOnUse" x="0" y="0" width="160" height="45">
<path d="M87.0032 6.27737C114.85 6.27737 140.32 15.6604 159.868 31.1762V31.1431C140.51 12.3067 111.964 0.384521 80.1261 0.384521C48.2924 0.384521 19.7421 12.3067 0.388733 31.1431V44.2066C20.8421 21.0653 52.0473 6.27737 87.0032 6.27737Z" fill="white"/>
</mask>
<g mask="url(#mask5_699_1757)">
<path d="M-4.90033 -4.90039H165.347V109.193H-4.90033V-4.90039Z" fill="#B0B3B3"/>
</g>
</g>
<mask id="mask6_699_1757" style="mask-type:luminance" maskUnits="userSpaceOnUse" x="0" y="56" width="160" height="47">
<path d="M0 56.5999H160V102.25H0V56.5999Z" fill="white"/>
</mask>
<g mask="url(#mask6_699_1757)">
<mask id="mask7_699_1757" style="mask-type:luminance" maskUnits="userSpaceOnUse" x="0" y="56" width="160" height="47">
<path d="M159.868 56.666C139.865 80.1588 108.97 95.5588 74.0017 96.3279C46.0676 96.9524 20.3376 88.1441 0.388733 73.0709V73.1039C20.2176 91.4938 49.0946 102.771 81.0276 102.064C112.704 101.365 140.882 89.0001 159.868 69.9818V56.666Z" fill="white"/>
</mask>
<g mask="url(#mask7_699_1757)">
<path d="M-4.90033 -4.90063H165.347V109.193H-4.90033V-4.90063Z" fill="#919496"/>
</g>
</g>
<mask id="mask8_699_1757" style="mask-type:luminance" maskUnits="userSpaceOnUse" x="0" y="59" width="160" height="46">
<path d="M0 59.9041H160V104.289H0V59.9041Z" fill="white"/>
</mask>
<g mask="url(#mask8_699_1757)">
<mask id="mask9_699_1757" style="mask-type:luminance" maskUnits="userSpaceOnUse" x="0" y="60" width="160" height="44">
<path d="M73.2532 98.011C45.4018 98.011 19.9323 88.628 0.388733 73.1122V73.1453C19.7421 91.9817 48.2924 103.904 80.1261 103.904C111.964 103.904 140.51 91.9817 159.868 73.1453V60.0818C139.41 83.2231 108.209 98.011 73.2532 98.011Z" fill="white"/>
</mask>
<g mask="url(#mask9_699_1757)">
<path d="M-4.90033 -4.90088H165.347V109.193H-4.90033V-4.90088Z" fill="#B0B3B3"/>
</g>
</g>
<mask id="mask10_699_1757" style="mask-type:luminance" maskUnits="userSpaceOnUse" x="16" y="38" width="128" height="31">
<path d="M16.9385 38.7314H143.508V68.1874H16.9385V38.7314Z" fill="white"/>
</mask>
<g mask="url(#mask10_699_1757)">
<mask id="mask11_699_1757" style="mask-type:luminance" maskUnits="userSpaceOnUse" x="16" y="38" width="128" height="31">
<path d="M71.6116 67.414H76.3094V39.4054H71.6116V67.414ZM137.107 58.6223C136.673 60.264 136.036 61.6783 135.201 62.8734C134.357 64.0685 133.331 64.9989 132.091 65.6771C130.854 66.3553 129.448 66.682 127.852 66.682C126.223 66.682 124.771 66.3429 123.547 65.6771C122.319 65.0114 121.273 64.0809 120.437 62.8734C119.602 61.6907 118.978 60.2723 118.552 58.6223C118.142 56.9723 117.919 55.1858 117.919 53.2381C117.919 51.3234 118.142 49.57 118.552 47.9614C118.986 46.3652 119.61 44.9798 120.437 43.8137C121.26 42.6516 122.298 41.7543 123.547 41.1092C124.792 40.464 126.223 40.1456 127.852 40.1456C129.448 40.1456 130.854 40.4723 132.091 41.1092C133.331 41.7419 134.357 42.664 135.201 43.8137C136.048 44.9674 136.673 46.3527 137.107 47.9614C137.541 49.57 137.752 51.3234 137.752 53.2381C137.752 55.1858 137.541 56.9723 137.107 58.6223ZM142.743 49.3881L141.209 45.9309C140.552 44.8516 139.749 43.8798 138.807 42.999L135.709 40.737C134.555 40.1043 133.331 39.6163 131.996 39.2772L127.84 38.7686C126.392 38.7686 125.007 38.9381 123.684 39.2772L119.991 40.737C118.849 41.3697 117.812 42.1223 116.873 42.999L114.483 45.9309C113.825 46.9979 113.316 48.1516 112.948 49.3881L112.407 53.2381C112.407 54.6151 112.589 55.9136 112.948 57.1832L114.483 60.7189C115.136 61.8189 115.942 62.8238 116.873 63.7211L119.991 66.0493C121.124 66.6944 122.36 67.1907 123.684 67.538L127.84 68.0674C129.291 68.0674 130.677 67.8895 131.996 67.538L135.709 66.0493C136.842 65.4042 137.876 64.6309 138.807 63.7211L141.209 60.7189C141.867 59.6189 142.371 58.432 142.743 57.1625L143.273 53.2381C143.273 51.9065 143.091 50.6163 142.743 49.3881ZM104.516 59.8711H104.339L85.986 39.4054H83.3518V67.414H85.4691V45.2941H85.6263L105.501 68.0674H106.592V39.4054H104.529L104.516 59.8711ZM64.2301 39.4054H61.1534L46.4523 51.8114V39.4054H41.7339V67.414H46.4399V53.1967L61.9887 67.4016H67.9725L50.2485 51.1869L64.2301 39.4054ZM25.908 39.4137L22.2193 39.9554C21.0779 40.3234 20.1351 40.8321 19.3535 41.4689L17.5877 43.7392C17.1824 44.62 16.9839 45.5712 16.9839 46.5967C16.9839 47.6223 17.2155 48.5321 17.6497 49.3136L19.3824 51.4516C20.102 52.0843 20.9166 52.6591 21.8471 53.176L24.6715 54.6689C25.6351 55.1445 26.5779 55.62 27.496 56.0832L29.9606 57.5843C30.6926 58.1343 31.2632 58.7174 31.6974 59.3542L32.3632 61.5294C32.3632 62.2076 32.202 62.8114 31.8877 63.3283L31.135 64.2918C30.0764 65.0114 29.4726 65.276 28.7986 65.4538L28.2486 65.582L16.9839 65.6234V67.4347L26.7351 67.4222C28.2569 67.4016 29.6132 67.2113 30.7629 66.8309C32.0117 66.4298 33.058 65.8798 33.9057 65.1809L35.808 62.7369C36.2339 61.8065 36.4448 60.814 36.4448 59.7553L35.7583 57.2163C35.3035 56.4554 34.6997 55.7565 33.9677 55.1114L31.4328 53.3456C30.4775 52.8039 29.5181 52.2869 28.5339 51.7907L25.6351 50.3185C24.6839 49.843 23.8362 49.3467 23.096 48.8174L21.3178 47.1591C20.8629 46.5761 20.623 45.9309 20.623 45.2321L20.7388 44.2396C21.173 43.2761 21.4997 42.8543 21.9422 42.4697L22.9264 41.7832C24.2497 41.3076 25.023 41.1919 25.9204 41.1919H36.4531V39.4054H25.908V39.4137Z" fill="white"/>
</mask>
<g mask="url(#mask11_699_1757)">
<path d="M-4.90021 -4.90039H165.347V109.193H-4.90021V-4.90039Z" fill="#1D2D5A"/>
</g>
</g>
<mask id="mask12_699_1757" style="mask-type:luminance" maskUnits="userSpaceOnUse" x="143" y="36" width="4" height="5">
<path d="M143.508 36.9905H146.63V40.5551H143.508V36.9905Z" fill="white"/>
</mask>
<g mask="url(#mask12_699_1757)">
<mask id="mask13_699_1757" style="mask-type:luminance" maskUnits="userSpaceOnUse" x="143" y="37" width="4" height="4">
<path d="M144.434 38.5247H144.901L145.385 38.5165L145.6 38.4214L145.704 38.2187L145.671 37.9334L145.48 37.7638L145.174 37.7349H144.434V38.5247ZM143.801 40.3236V37.2056H145.121L145.704 37.2345L146.126 37.4496L146.361 37.9044L146.287 38.5165L145.811 38.9176L145.791 39.1285L146.084 39.4883L146.613 40.336H145.861L145.406 39.6578L145.133 39.2691L144.943 39.0995L144.711 39.0458H144.434V40.3443L143.801 40.3236Z" fill="white"/>
</mask>
<g mask="url(#mask13_699_1757)">
<path d="M-4.90082 -4.90039H165.347V109.193H-4.90082V-4.90039Z" fill="#1D2D5A"/>
</g>
</g>
<mask id="mask14_699_1757" style="mask-type:luminance" maskUnits="userSpaceOnUse" x="141" y="35" width="8" height="8">
<path d="M141.746 35.208H148.859V42.3415H141.746V35.208Z" fill="white"/>
</mask>
<g mask="url(#mask14_699_1757)">
<mask id="mask15_699_1757" style="mask-type:luminance" maskUnits="userSpaceOnUse" x="141" y="35" width="8" height="8">
<path d="M145.208 35.5017C143.409 35.5017 141.941 36.9615 141.941 38.7686C141.941 40.5799 143.4 42.0273 145.208 42.0273C147.015 42.0273 148.466 40.5675 148.466 38.7686C148.466 36.9698 147.006 35.5017 145.195 35.5017M145.195 35.9897C146.729 35.9897 147.978 37.2344 147.978 38.7686C147.978 40.3028 146.729 41.5393 145.195 41.5393C143.661 41.5393 142.416 40.2946 142.416 38.7686C142.416 37.2468 143.661 35.9897 145.195 35.9897Z" fill="white"/>
</mask>
<g mask="url(#mask15_699_1757)">
<path d="M-4.9007 -4.90039H165.347V109.193H-4.9007V-4.90039Z" fill="#1D2D5A"/>
</g>
</g>
</svg>
